{
  "title": "21 Jump Street (2012) DVDRip XviD-MAX",
  "uid": 7338740,
  "size": 1423125269,
  "categoryP": "video",
  "categoryS": "movies",
  "magnet": "?xt=urn:btih:9208cc67483704c84096d9747b4ed970e56bc8ac&amp;dn=21+Jump+Street+%282012%29+DVDRip+XviD-MAX&amp;tr=udp%3A%2F%2Ftracker.openbittorrent.com%3A80&amp;tr=udp%3A%2F%2Fopen.demonii.com%3A1337&amp;tr=udp%3A%2F%2Ftracker.coppersurfer.tk%3A6969&amp;tr=udp%3A%2F%2Fexodus.desync.com%3A6969",
  "seeders": 144,
  "leechers": 26,
  "uploader": "extremezone",
  "files": -1,
  "time": 1339162783,
  "description": "Screens: &lt;a href=&quot;\nhttp://www.postimg.com/image/72000/photo-71752.jpg&quot; rel=&quot;nofollow&quot; target=&quot;_NEW&quot;&gt;\nhttp://www.postimg.com/image/72000/photo-71752.jpg&lt;/a&gt;\nhttp://www.postimg.com/image/72000/photo-71753.jpg\nhttp://www.postimg.com/image/72000/photo-71754.jpg\nhttp://www.postimg.com/image/72000/photo-71755.jpg\n\nScreenCaps: &lt;a href=&quot;\nhttp://www.postimg.com/image/72000/photo-71757.jpg&quot; rel=&quot;nofollow&quot; target=&quot;_NEW&quot;&gt;\nhttp://www.postimg.com/image/72000/photo-71757.jpg&lt;/a&gt;\n\n21 Jump Street (2012) DVDRip XviD-MAX\nFormat                                   : AVI\nFormat/Info                              : Audio Video Interleave\nFormat profile                           : OpenDML\nFormat settings                          : rec\nFile size                                : 1.32 GiB\nDuration                                 : 1h 49mn\nOverall bit rate                         : 1 719 Kbps\nWriting application                      : VirtualDubMod 1.5.10.2 (build 2542/release)\nWriting library                          : VirtualDubMod build 2542/release\nOriginal source form                     : MAX TORRENTZ\nCopyright                                : SIGISMUNT\n\nVideo\nID                                       : 0\nFormat                                   : MPEG-4 Visual\nFormat profile                           : Advanced Simple@L5\nFormat settings, BVOP                    : 2\nFormat settings, QPel                    : No\nFormat settings, GMC                     : No warppoints\nFormat settings, Matrix                  : Default (H.263)\nCodec ID                                 : XVID\nCodec ID/Hint                            : XviD\nDuration                                 : 1h 49mn\nBit rate                                 : 1 330 Kbps\nWidth                                    : 624 pixels\nHeight                                   : 256 pixels\nDisplay aspect ratio                     : 2.40:1\nFrame rate                               : 23.976 fps\nColor space                              : YUV\nChroma subsampling                       : 4:2:0\nBit depth                                : 8 bits\nScan type                                : Progressive\nCompression mode                         : Lossy\nBits/(Pixel*Frame)                       : 0.347\nStream size                              : 1.02 GiB (77%)\nWriting library                          : XviD 64\n\nAudio\nID                                       : 1\nFormat                                   : AC-3\nFormat/Info                              : Audio Coding 3\nMode extension                           : CM (complete main)\nFormat settings, Endianness              : Big\nCodec ID                                 : 2000\nDuration                                 : 1h 49mn\nBit rate mode                            : Constant\nBit rate                                 : 384 Kbps\nChannel(s)                               : 6 channels\nChannel positions                        : Front: L C R, Side: L R, LFE\nSampling rate                            : 48.0 KHz\nBit depth                                : 16 bits\nCompression mode                         : Lossy\nStream size                              : 301 MiB (22%)\nAlignment                                : Aligned on interleaves\nInterleave, duration                     : 64 ms (1.53 video frames)\nInterleave, preload duration             : 192 ms",
  "parsed": {
    "xt": "urn:btih:9208cc67483704c84096d9747b4ed970e56bc8ac",
    "dn": "21 Jump Street (2012) DVDRip XviD-MAX",
    "tr": [
      "udp://exodus.desync.com:6969",
      "udp://open.demonii.com:1337",
      "udp://tracker.coppersurfer.tk:6969",
      "udp://tracker.openbittorrent.com:80"
    ],
    "infoHash": "9208cc67483704c84096d9747b4ed970e56bc8ac",
    "infoHashBuffer": {
      "type": "Buffer",
      "data": [
        146,
        8,
        204,
        103,
        72,
        55,
        4,
        200,
        64,
        150,
        217,
        116,
        123,
        78,
        217,
        112,
        229,
        107,
        200,
        172
      ]
    },
    "name": "21 Jump Street (2012) DVDRip XviD-MAX",
    "announce": [
      "udp://exodus.desync.com:6969",
      "udp://open.demonii.com:1337",
      "udp://tracker.coppersurfer.tk:6969",
      "udp://tracker.openbittorrent.com:80"
    ],
    "urlList": []
  },
  "previous": 101,
  "peers": 133,
  "last_updated": "2016-12-27T07:08:24.271Z"
}